<?xml version="1.0" encoding="UTF-8"?>
<svg version="1.1" xmlns="http://www.w3.org/2000/svg" width="1000" height="1000">
<path d="M0 0 C1.30910843 -0.00540298 2.61821686 -0.01080597 3.96699524 -0.01637268 C7.51667819 -0.03018394 11.06586863 -0.01926079 14.61552358 -0.00266147 C18.35480457 0.01132764 22.09406095 0.00471347 25.83335876 0.00120544 C32.10806081 -0.00148552 38.38257035 0.01188344 44.65722656 0.03515625 C51.88222096 0.06177062 59.10689404 0.06350523 66.33192068 0.05176789 C73.32170357 0.04094038 80.31137173 0.04721523 87.30114555 0.06132317 C90.25818067 0.06703888 93.21513061 0.06703551 96.17216682 0.06225777 C100.31156633 0.05654204 104.45049731 0.07592585 108.58984375 0.09765625 C109.79797729 0.0931546 111.00611084 0.08865295 112.25085449 0.08401489 C127.70455517 0.21804177 140.61911032 4.31811357 151.90991211 15.06030273 C161.46172886 25.11061498 166.8626845 37.04471533 167.35522461 50.97436523 C166.69526012 69.59773816 157.22280884 85.38214492 147.23022461 100.50170898 C144.38638988 97.84266671 142.39209676 95.36443508 140.56616211 91.93139648 C140.08840332 91.04339355 139.61064453 90.15539062 139.1184082 89.24047852 C138.61905762 88.29543457 138.11970703 87.35039062 137.60522461 86.37670898 C136.54370267 84.39181061 135.48118694 82.40744342 134.41772461 80.42358398 C133.62108398 78.93375 133.62108398 78.93375 132.80834961 77.41381836 C131.33676371 74.69830527 129.82775527 72.00988072 128.29272461 69.32983398 C127.83849121 68.53335449 127.38425781 67.736875 126.91625977 66.91625977 C126.06894714 65.4365395 125.21489996 63.96064622 124.3527832 62.48950195 C122.39094749 59.04000266 120.97313945 55.93731356 120.08178711 52.05639648 C119.80077148 50.88334961 119.51975586 49.71030273 119.23022461 48.50170898 C116.74566633 47.25942985 115.08269898 47.37036877 112.30238342 47.36126709 C111.26061447 47.35555695 110.21884552 47.3498468 109.14550781 47.34396362 C107.99791992 47.34284576 106.85033203 47.34172791 105.66796875 47.34057617 C104.46305283 47.33561127 103.2581369 47.33064636 102.01670837 47.32553101 C98.70679738 47.31341045 95.39694965 47.30596135 92.08702397 47.30152035 C90.02025214 47.29859089 87.95348588 47.29448636 85.88671684 47.29001617 C79.42342277 47.27634108 72.9601414 47.26667402 66.49683386 47.26281428 C59.02974739 47.25833086 51.56284373 47.24077 44.09581286 47.21181369 C38.32761669 47.19021964 32.55947204 47.18011126 26.79123586 47.17877316 C23.34427871 47.17772365 19.89749338 47.17178495 16.45057869 47.15395355 C12.60761699 47.13446 8.76488507 47.13875273 4.921875 47.14526367 C3.77631134 47.13604889 2.63074768 47.12683411 1.45046997 47.11734009 C0.4058812 47.12290924 -0.63870758 47.12847839 -1.71495056 47.13421631 C-2.62400619 47.13274975 -3.53306181 47.13128319 -4.46966457 47.12977219 C-7.19371367 47.57026144 -8.07115656 48.38282533 -9.76977539 50.50170898 C-7.76240997 57.60719697 -4.67266666 63.64701712 -0.95727539 70.00170898 C0.21656363 72.04299515 1.38971702 74.0846757 2.56225586 76.12670898 C3.16763184 77.17600586 3.77300781 78.22530273 4.39672852 79.30639648 C7.3847899 84.51381957 10.30545456 89.75856357 13.23022461 95.00170898 C18.78749209 104.93989927 24.37568574 114.86015711 29.98803711 124.76733398 C32.24372965 128.75087876 34.48667688 132.74130555 36.72241211 136.73608398 C37.29918701 137.7639502 37.87596191 138.79181641 38.47021484 139.85083008 C39.56373495 141.80007331 40.65460208 143.75080843 41.7421875 145.70336914 C46.80580729 156.42722854 46.80580729 156.42722854 55.23022461 163.50170898 C59.26529807 162.1566845 60.37551149 159.60239388 62.48022461 156.12670898 C62.90279541 155.44133057 63.32536621 154.75595215 63.76074219 154.04980469 C68.69142831 145.93437173 73.24215012 137.59536033 77.7878418 129.26000977 C88.91454014 108.94027047 88.91454014 108.94027047 93.23022461 107.50170898 C93.63225098 108.23059326 94.03427734 108.95947754 94.44848633 109.71044922 C95.98789543 112.49873414 97.52945014 115.28582016 99.07229614 118.07220459 C99.75922093 119.31381196 100.44532152 120.55587568 101.13058472 121.79840088 C104.49400483 127.89566786 107.85826269 133.98062137 111.52319336 139.90405273 C111.99708496 140.67370361 112.47097656 141.44335449 112.95922852 142.23632812 C113.82724851 143.62957808 114.71038142 145.01356212 115.6105957 146.38623047 C118.36461573 150.81653457 118.36461573 150.81653457 117.75366211 153.93139648 C117.25092773 154.77959961 116.74819336 155.62780273 116.23022461 156.50170898 C115.56320588 157.77688677 114.8980271 159.05302775 114.23413086 160.32983398 C91.66483893 201.57328149 91.66483893 201.57328149 72.23022461 208.50170898 C58.4468149 212.17608999 42.73686435 211.95177757 30.04272461 204.93920898 C11.74832401 192.74294192 2.30077802 171.19680309 -8.08129883 152.53588867 C-10.3810382 148.40327431 -12.69332701 144.27773163 -15.00512695 140.15185547 C-16.18239211 138.05027103 -17.35882341 135.94821926 -18.53442383 133.84570312 C-21.92659949 127.78037627 -25.33790554 121.72643153 -28.76782227 115.68237305 C-33.65443685 107.06773497 -38.50159036 98.43253635 -43.26977539 89.75170898 C-43.99028076 88.44907104 -43.99028076 88.44907104 -44.7253418 87.12011719 C-53.53491923 70.99917924 -58.48035657 56.40178994 -55.11743164 37.91577148 C-51.00028415 24.45110886 -42.0150935 12.7166553 -29.64836025 5.91259098 C-19.9959418 1.18164711 -10.63272139 -0.0852301 0 0 Z " fill="#27BBBE" transform="translate(380.769775390625,316.498291015625)"/>
<path d="M0 0 C14.65646817 -0.07030914 29.31291379 -0.12309489 43.96951675 -0.15543652 C50.7759594 -0.17085734 57.58229681 -0.19185437 64.38867188 -0.22631836 C70.96335195 -0.25959309 77.537964 -0.27687889 84.1127243 -0.28463173 C86.61480169 -0.29015328 89.11687344 -0.30093529 91.61890411 -0.31719017 C95.13701542 -0.3391268 98.65468232 -0.34196011 102.17285156 -0.34057617 C103.70711288 -0.35675491 103.70711288 -0.35675491 105.27236938 -0.3732605 C120.30387825 -0.30972741 132.8443897 4.32782793 143.74609375 14.68359375 C154.67772939 25.91835966 158.44548436 37.92315368 158.43554688 53.26538086 C158.02364065 72.6140517 146.30727532 88.87394923 136.99200439 105.253479 C135.50752487 107.86705075 134.03323763 110.48633809 132.55859375 113.10546875 C130.44770193 116.8512607 128.32988655 120.59300771 126.20703125 124.33203125 C123.38896578 129.30156965 120.60370777 134.28889218 117.82324219 139.27954102 C95.49904761 179.31884451 95.49904761 179.31884451 87 191 C86.51789063 191.66515625 86.03578125 192.3303125 85.5390625 193.015625 C78.81995064 201.55372295 68.74132633 207.76759581 57.94970703 209.2890625 C43.29614151 210.88260964 29.63786851 210.26936605 17.47265625 201.09375 C7.34076747 192.47618049 0.3372581 181.43053164 -6.125 169.9375 C-6.76042725 168.82262207 -7.39585449 167.70774414 -8.05053711 166.55908203 C-13.26016774 157.40561311 -18.3546459 148.18710213 -23.44384766 138.96630859 C-27.52073856 131.59813887 -31.71937663 124.3138325 -36 117.0625 C-40.83979422 108.83112052 -45.53596794 100.53209703 -50.07739258 92.13302612 C-51.02675654 90.37855564 -51.98297356 88.62779872 -52.93945312 86.87719727 C-59.97191047 73.75873733 -64 63.11383197 -64 48 C-49.15 48 -34.3 48 -19 48 C-17.68 51.63 -16.36 55.26 -15 59 C-13.27165622 62.28010755 -11.51958205 65.44794617 -9.625 68.625 C-8.5521785 70.46283767 -7.48061734 72.30141149 -6.41015625 74.140625 C-5.85215332 75.09517578 -5.29415039 76.04972656 -4.71923828 77.03320312 C-1.7748568 82.11416361 1.07823236 87.24581585 3.9375 92.375 C8.96102099 101.36714395 14.01044951 110.34398709 19.08984375 119.3046875 C21.98567665 124.41830463 24.86195378 129.54197069 27.71484375 134.6796875 C28.33617187 135.79666016 28.9575 136.91363281 29.59765625 138.06445312 C30.78705125 140.20460655 31.97345832 142.34642446 33.15625 144.49023438 C34.74336097 147.34365729 36.36222225 150.1754047 38 153 C38.50547363 153.89879883 39.01094727 154.79759766 39.53173828 155.72363281 C40.02786621 156.54959961 40.52399414 157.37556641 41.03515625 158.2265625 C41.46320557 158.95697754 41.89125488 159.68739258 42.33227539 160.43994141 C43.99201058 162.26671659 43.99201058 162.26671659 46.94165039 162.59033203 C50.17504182 162.29219125 50.17504182 162.29219125 52.06787109 159.62207031 C52.67195801 158.53506836 53.27604492 157.44806641 53.8984375 156.328125 C54.2335434 155.74097717 54.56864929 155.15382935 54.91390991 154.54888916 C55.61439713 153.31743143 56.30537428 152.08051993 56.98718262 150.83862305 C58.53728728 148.02463288 60.17086831 145.25962433 61.7890625 142.484375 C63.07026007 140.24103874 64.34882728 137.99619856 65.625 135.75 C66.32137692 134.52754522 67.01783037 133.30513403 67.71435547 132.08276367 C73.95199507 121.12513286 80.11627385 110.12658822 86.26025391 99.11621094 C88.67070985 94.79863311 91.08624154 90.4839065 93.50268555 86.16967773 C94.69396501 84.04215193 95.8842585 81.91407369 97.07348633 79.78540039 C99.64043378 75.19351855 102.2164463 70.6084441 104.84375 66.05078125 C105.26615967 65.3141626 105.68856934 64.57754395 106.1237793 63.81860352 C106.88493337 62.49404849 107.65153128 61.17259781 108.42504883 59.85522461 C110.28895373 56.60350859 111.6377981 53.75616782 112 50 C111.15565917 48.06718298 111.15565917 48.06718298 109 47 C101.18730216 45.61534098 93.25435459 45.7745078 85.34375 45.68359375 C83.83060178 45.66298977 82.31745886 45.64199248 80.80432129 45.62062073 C76.84574721 45.5657553 72.88712429 45.51619126 68.9284668 45.46777344 C64.87935097 45.41729688 60.83030498 45.36174814 56.78125 45.30664062 C48.85422593 45.19949448 40.92714295 45.09795517 33 45 C32.7970784 44.38475464 32.5941568 43.76950928 32.38508606 43.13562012 C32.11725815 42.32709595 31.84943024 41.51857178 31.57348633 40.68554688 C31.30868973 39.88467651 31.04389313 39.08380615 30.77107239 38.25866699 C25.44223885 22.64915923 16.48359926 10.41631312 1.6171875 2.77734375 C1.08351563 2.52082031 0.54984375 2.26429688 0 2 C0 1.34 0 0.68 0 0 Z " fill="#1590D9" transform="translate(517,317)"/>
<path d="M0 0 C1.63388672 -0.03867187 1.63388672 -0.03867187 3.30078125 -0.078125 C10.74278849 0.64289992 10.74278849 0.64289992 13.6875 3.25 C15.60220917 7.55003921 16.48022867 12.07919881 17.43359375 16.66796875 C17.73485676 18.00948598 18.0387746 19.35040953 18.3452301 20.69075012 C19.14276316 24.21159254 19.9040668 27.73932067 20.65802002 31.26971436 C21.43447581 34.87412949 22.24503555 38.47084168 23.05273438 42.06835938 C24.63107822 49.12182076 26.17121584 56.18290739 27.6875 63.25 C29.99337709 56.75547402 31.74203318 50.23334065 33.28125 43.51953125 C33.75893861 41.47977649 34.23680856 39.44006419 34.71484375 37.40039062 C35.45475832 34.22141636 36.19225137 31.04191334 36.92626953 27.86157227 C37.64225394 24.76683327 38.36746151 21.67436569 39.09375 18.58203125 C39.30946655 17.6350386 39.52518311 16.68804596 39.74743652 15.71235657 C40.88492673 10.89101358 42.04711059 6.50924273 44.6875 2.25 C48.79418421 0.25137528 52.59725828 -0.04619361 57.125 -0.0625 C58.19621094 -0.07925781 59.26742187 -0.09601562 60.37109375 -0.11328125 C64.45197168 0.33374071 67.10401148 1.21506693 70.6875 3.25 C71.96115267 6.01712558 72.64498399 8.07556945 73.26171875 10.9921875 C73.45376389 11.77963348 73.64580902 12.56707947 73.84367371 13.37838745 C74.2599387 15.0921678 74.66392208 16.80896702 75.05706787 18.52819824 C75.70193513 21.31232165 76.39516914 24.08014124 77.10400391 26.84863281 C78.59797524 32.68376782 80.05112583 38.52853064 81.5 44.375 C82.00693798 46.41281602 82.51409824 48.45057676 83.02148438 50.48828125 C84.24604265 55.40822321 85.46762663 60.32889445 86.6875 65.25 C86.85623123 64.50719788 87.02496246 63.76439575 87.19880676 62.99908447 C88.79208281 55.99315559 90.39482064 48.98949105 92.00818348 41.98816299 C92.83726133 38.3887855 93.66267805 34.78865007 94.47973633 31.18652344 C95.268642 27.70913728 96.06715262 24.23408482 96.87232018 20.76042938 C97.17754635 19.43597467 97.47932589 18.1107207 97.77756691 16.7846756 C98.19645206 14.92499643 98.62883506 13.06837328 99.06176758 11.21191406 C99.30381424 10.15490295 99.5458609 9.09789185 99.79524231 8.0088501 C100.71005168 5.18027048 101.67862945 3.42615573 103.6875 1.25 C107.14995046 0.15932811 110.57245371 0.08788656 114.1875 0.0625 C115.56421875 0.04123047 115.56421875 0.04123047 116.96875 0.01953125 C119.94673491 0.27197537 122.03392722 0.88231951 124.6875 2.25 C127.50854006 6.48156008 126.52477202 9.4013763 125.6875 14.25 C125.09077926 17.15602571 124.37329379 20.01896492 123.61791992 22.88745117 C123.40962051 23.69842758 123.20132111 24.50940399 122.98670959 25.34495544 C122.30371007 27.99604683 121.6114046 30.64458951 120.91796875 33.29296875 C120.43551194 35.14897461 119.95328198 37.00503944 119.4712677 38.86116028 C118.46272864 42.73795639 117.44913752 46.61339058 116.43237305 50.48803711 C115.13251253 55.4445003 113.84893793 60.40502141 112.56954479 65.36680126 C111.57964108 69.19591728 110.57933301 73.02225824 109.5760746 76.84789467 C109.09842878 78.67572294 108.62441436 80.50450429 108.15416527 82.3342495 C107.49534904 84.89272057 106.82213505 87.44698772 106.14526367 90.00073242 C105.86061752 91.12535889 105.86061752 91.12535889 105.57022095 92.27270508 C104.32866715 96.88037109 102.71471684 100.45919404 99.6875 104.25 C94.9822677 105.81841077 90.24149567 105.55839195 85.3125 105.625 C83.75015625 105.68107422 83.75015625 105.68107422 82.15625 105.73828125 C81.14820313 105.74988281 80.14015625 105.76148438 79.1015625 105.7734375 C78.1832666 105.79325684 77.2649707 105.81307617 76.31884766 105.83349609 C72.37352337 104.9586283 71.11275303 103.48241423 68.6875 100.25 C67.3077704 96.73824437 66.44034056 93.14822366 65.57421875 89.48046875 C65.31494095 88.44432938 65.05566315 87.40819 64.78852844 86.34065247 C63.96746188 83.04343975 63.17096803 79.74085148 62.375 76.4375 C61.82127386 74.19556469 61.26595305 71.95402259 60.70898438 69.71289062 C59.34997987 64.22968188 58.01107826 58.74186131 56.6875 53.25 C55.22657216 55.9736663 54.26780218 58.48744581 53.57421875 61.49609375 C53.38061768 62.32375244 53.1870166 63.15141113 52.98754883 64.00415039 C52.78540771 64.88965576 52.5832666 65.77516113 52.375 66.6875 C52.05341919 68.0631311 52.05341919 68.0631311 51.7253418 69.46655273 C51.04128471 72.39328115 50.36362012 75.32142852 49.6875 78.25 C48.79737433 82.105523 47.90072808 85.95944185 47 89.8125 C46.79785889 90.69800537 46.59571777 91.58351074 46.38745117 92.49584961 C46.1938501 93.3235083 46.00024902 94.15116699 45.80078125 95.00390625 C45.63360596 95.72908447 45.46643066 96.4542627 45.29418945 97.20141602 C44.38633622 100.26692767 43.57149079 102.64255692 40.89257812 104.48339844 C38.28446783 105.39011526 36.16706026 105.50883453 33.40625 105.515625 C32.39949219 105.51820313 31.39273438 105.52078125 30.35546875 105.5234375 C29.31003906 105.51570312 28.26460937 105.50796875 27.1875 105.5 C25.61935547 105.51160156 25.61935547 105.51160156 24.01953125 105.5234375 C22.50939453 105.51957031 22.50939453 105.51957031 20.96875 105.515625 C20.05158203 105.51336914 19.13441406 105.51111328 18.18945312 105.50878906 C15.44856359 105.22528566 13.99863327 104.73556956 11.6875 103.25 C6.85375731 94.60770639 5.17620463 83.25545648 2.703125 73.703125 C2.23823699 71.9195186 1.77312475 70.13597062 1.30780029 68.35247803 C0.33938226 64.63518047 -0.62487873 60.9168344 -1.58642578 57.19775391 C-2.81656481 52.44205337 -4.05938021 47.68976794 -5.3055687 42.9382515 C-6.26716829 39.26456347 -7.22091342 35.58887018 -8.17243195 31.91255951 C-8.62745682 30.159254 -9.08516093 28.40664146 -9.54564667 26.65476227 C-10.18800926 24.20709308 -10.81943579 21.75684558 -11.44824219 19.30566406 C-11.63832352 18.59070267 -11.82840485 17.87574127 -12.02424622 17.13911438 C-13.13395964 12.75476066 -13.59490522 8.76768644 -13.3125 4.25 C-11.90893563 2.14465344 -10.98537886 1.46765102 -8.59765625 0.6953125 C-5.70533807 0.13168126 -2.94663337 0.04155065 0 0 Z " fill="#0C132D" transform="translate(130.3125,577.75)"/>
<path d="M0 0 C11.55629575 6.9527222 17.80391394 23.51657604 24.04296875 34.8515625 C26.32993436 39.00168324 28.65844506 43.12065816 31.05078125 47.2109375 C31.59049561 48.13648438 32.13020996 49.06203125 32.6862793 50.015625 C33.68997717 51.73060853 34.70002188 53.44190222 35.71801758 55.1484375 C40.48597883 63.33314317 45.30241823 72.60024843 43.625 82.3125 C41.05850196 91.04644997 37.37107745 96.51609282 29.625 101.296875 C25.36760698 103.45883239 21.36330506 103.45695882 16.62841797 103.50537109 C15.58362022 103.51763733 15.58362022 103.51763733 14.51771545 103.53015137 C12.21754798 103.55491615 9.91744204 103.57150186 7.6171875 103.5859375 C6.82796024 103.59126118 6.03873299 103.59658485 5.22558975 103.60206985 C1.04493432 103.62876773 -3.13569166 103.64814995 -7.31640625 103.66259766 C-10.76166487 103.67591078 -14.20632754 103.7037188 -17.65136719 103.74462891 C-21.82522879 103.79418285 -25.99855201 103.81874648 -30.17269516 103.82582474 C-31.75540932 103.83250037 -33.33811322 103.84762532 -34.92065811 103.87171555 C-44.85838138 104.01431548 -53.55433566 103.66507125 -61.26785278 96.5718689 C-67.53438746 89.94133912 -68.70398313 83.76586286 -68.87109375 74.88671875 C-67.74889439 66.80158162 -63.72712202 59.77650651 -59.5625 52.875 C-56.15089487 47.11994494 -52.81116888 41.33524071 -49.6015625 35.46484375 C-49.11575462 34.57872154 -49.11575462 34.57872154 -48.62013245 33.67469788 C-47.02286425 30.75973356 -45.43313078 27.84126146 -43.85424805 24.91625977 C-34.35486143 7.58023283 -22.1728497 -9.18340074 0 0 Z M-13.375 21.3125 C-18.16351903 27.220718 -21.73614453 34.25742506 -25.4375 40.875 C-25.98752686 41.85283447 -26.53755371 42.83066895 -27.10424805 43.83813477 C-33.31944985 54.92797013 -39.36081464 66.11269748 -45.375 77.3125 C-44.715 78.3025 -44.055 79.2925 -43.375 80.3125 C-40.66850099 80.75222621 -40.66850099 80.75222621 -37.45654297 80.65307617 C-36.21540741 80.65284958 -34.97427185 80.65262299 -33.69552612 80.65238953 C-32.33607628 80.63706848 -30.97663009 80.62142047 -29.6171875 80.60546875 C-28.2299953 80.59987427 -26.84279717 80.59560347 -25.45559692 80.59260559 C-21.80250719 80.58114497 -18.14977466 80.55166786 -14.49682617 80.51849365 C-10.77006869 80.48781867 -7.04325355 80.47410579 -3.31640625 80.45898438 C3.99755877 80.42679886 11.31122936 80.37558839 18.625 80.3125 C19.75217477 75.66810726 19.30307278 73.91058569 16.8984375 69.7265625 C16.28452148 68.64125244 15.67060547 67.55594238 15.03808594 66.43774414 C14.35903807 65.27081326 13.67966896 64.10406925 13 62.9375 C12.31409747 61.73700693 11.62954059 60.53574408 10.94628906 59.33374023 C9.54316684 56.86958695 8.13245259 54.41002304 6.71582031 51.95361328 C4.7292197 48.50337669 2.7782838 45.03396589 0.8359375 41.55859375 C-0.31761271 39.49734232 -1.47125395 37.43614182 -2.625 35.375 C-3.1607666 34.4173877 -3.6965332 33.45977539 -4.24853516 32.47314453 C-4.7491748 31.5861084 -5.24981445 30.69907227 -5.765625 29.78515625 C-6.4157959 28.62898804 -6.4157959 28.62898804 -7.07910156 27.44946289 C-8.39865163 25.27349798 -9.72615351 23.2529511 -11.375 21.3125 C-12.035 21.3125 -12.695 21.3125 -13.375 21.3125 Z " fill="#26BABF" transform="translate(324.375,579.6875)"/>
<path d="M0 0 C6.13228082 4.74320964 10.25555414 11.29286178 13.96264648 17.98388672 C14.42002197 18.79180664 14.87739746 19.59972656 15.34863281 20.43212891 C16.33309628 22.17324885 17.31353192 23.9166513 18.2902832 25.66210938 C19.89889986 28.5306145 21.52456558 31.38890932 23.15405273 34.24560547 C26.40769701 39.95654423 29.62963178 45.68471416 32.83764648 51.42138672 C33.49120117 52.58420166 33.49120117 52.58420166 34.15795898 53.77050781 C35.29114184 55.79424446 36.41094765 57.82465168 37.52514648 59.85888672 C38.12713867 60.95072266 38.72913086 62.04255859 39.34936523 63.16748047 C42.92791361 70.99144581 43.70419367 78.28202066 41.18920898 86.55419922 C38.3855361 93.11325046 32.76802738 98.8418183 26.13824463 101.50624084 C22.49678144 102.51589724 19.39102925 102.69571981 15.61401367 102.7277832 C14.91718979 102.73610672 14.22036591 102.74443024 13.50242615 102.75300598 C11.21306665 102.77697635 8.92399292 102.78586282 6.63452148 102.79248047 C5.03037436 102.801458 3.42622804 102.81058003 1.82208252 102.81983948 C-1.53684516 102.83629779 -4.89567357 102.84402357 -8.25463867 102.84692383 C-12.53611672 102.85229862 -16.81664729 102.88995394 -21.09785843 102.93566799 C-24.4112479 102.9655724 -27.7244131 102.9726503 -31.03792572 102.97364998 C-32.61504192 102.97782726 -34.19216034 102.99016027 -35.76914215 103.01116753 C-45.91044624 103.13549197 -54.33927679 102.57159036 -62.29034424 95.53929138 C-67.56263497 90.27896009 -69.65891546 84.43870163 -70.39282227 77.12451172 C-70.2323681 68.43081326 -65.23330155 60.83217375 -61.16235352 53.42138672 C-60.60612305 52.40173828 -60.04989258 51.38208984 -59.47680664 50.33154297 C-55.10037692 42.32599277 -50.64589907 34.36742375 -46.16235352 26.42138672 C-45.40607666 25.06907959 -45.40607666 25.06907959 -44.63452148 23.68945312 C-31.68367225 0.57371975 -31.68367225 0.57371975 -23.40454102 -2.21142578 C-15.88054243 -3.44357886 -6.6726811 -4.32954987 0 0 Z M-14.16235352 20.42138672 C-18.25442883 24.92737309 -21.02652798 30.20103856 -23.97485352 35.48388672 C-24.52874756 36.47090576 -25.0826416 37.4579248 -25.65332031 38.47485352 C-29.98501564 46.23102303 -34.24347692 54.02707019 -38.45809937 61.84738159 C-39.13535023 63.10396582 -39.81375457 64.35992906 -40.49331665 65.61526489 C-41.44606817 67.377652 -42.39225437 69.14358358 -43.33813477 70.90966797 C-43.88381104 71.92585205 -44.4294873 72.94203613 -44.99169922 73.98901367 C-46.30690977 76.27184078 -46.30690977 76.27184078 -46.16235352 78.42138672 C-43.46936198 79.76788249 -41.38259313 79.54854599 -38.36743164 79.55078125 C-36.5454425 79.55550949 -36.5454425 79.55550949 -34.68664551 79.56033325 C-33.36894165 79.55830902 -32.05123779 79.55628479 -30.69360352 79.55419922 C-29.33361799 79.5548726 -27.97363258 79.55584291 -26.61364746 79.55709839 C-23.76219538 79.55857375 -20.91077461 79.556426 -18.05932617 79.55175781 C-14.40060179 79.54606061 -10.74195076 79.54934048 -7.08322906 79.55533028 C-4.27459153 79.55894025 -1.46597143 79.55779529 1.34266663 79.55520248 C3.34909106 79.55420903 5.35551616 79.55725103 7.36193848 79.56033325 C8.5765979 79.55718109 9.79125732 79.55402893 11.04272461 79.55078125 C12.11590942 79.54998566 13.18909424 79.54919006 14.2947998 79.54837036 C16.83032311 79.59256802 16.83032311 79.59256802 18.83764648 78.42138672 C18.24511238 74.63727725 17.15408014 71.77449053 15.31811523 68.42138672 C14.79612549 67.46167969 14.27413574 66.50197266 13.73632812 65.51318359 C13.17163818 64.49289062 12.60694824 63.47259766 12.02514648 62.42138672 C11.44563232 61.365 10.86611816 60.30861328 10.26904297 59.22021484 C8.46818755 55.94851009 6.65508263 52.68390624 4.83764648 49.42138672 C4.27916016 48.41591797 3.72067383 47.41044922 3.14526367 46.37451172 C1.57250521 43.55166029 -0.01079302 40.73508859 -1.59985352 37.92138672 C-2.07076416 37.08091797 -2.5416748 36.24044922 -3.02685547 35.37451172 C-6.02445688 30.11983669 -9.21351084 25.0250626 -13.16235352 20.42138672 C-13.49235352 20.42138672 -13.82235352 20.42138672 -14.16235352 20.42138672 Z " fill="#26BABF" transform="translate(794.162353515625,580.57861328125)"/>
<path d="M0 0 C1.54168602 -0.01429802 1.54168602 -0.01429802 3.11451721 -0.02888489 C4.76314003 -0.02751778 4.76314003 -0.02751778 6.44506836 -0.02612305 C7.58270126 -0.03040817 8.72033417 -0.0346933 9.8924408 -0.03910828 C12.29384699 -0.04484383 14.69527056 -0.04535756 17.09667969 -0.04101562 C20.77495798 -0.03785036 24.45243602 -0.06134387 28.13061523 -0.08666992 C30.46459859 -0.08894241 32.79858412 -0.08964665 35.13256836 -0.08862305 C36.23367447 -0.09783279 37.33478058 -0.10704254 38.46925354 -0.11653137 C39.49389206 -0.11030258 40.51853058 -0.10407379 41.57421875 -0.09765625 C42.92393517 -0.09860039 42.92393517 -0.09860039 44.30091858 -0.0995636 C47.23514389 0.35389666 48.58882944 1.23484911 50.72241211 3.2746582 C51.77577722 6.43475354 51.92274099 8.8299718 51.97241211 12.1496582 C51.99819336 13.17833008 52.02397461 14.20700195 52.05053711 15.2668457 C51.65795471 18.86551768 51.05238243 20.49370719 48.72241211 23.2746582 C45.93774765 23.73127326 43.76736046 23.86129317 40.99194336 23.76293945 C40.24152267 23.75586472 39.49110199 23.74878998 38.71794128 23.74150085 C36.32258116 23.71352478 33.92956464 23.6507883 31.53491211 23.5871582 C29.91059693 23.56207913 28.28624508 23.53926526 26.66186523 23.51879883 C22.68041999 23.46793724 18.70403606 23.37011536 14.72241211 23.2746582 C14.72241211 28.5546582 14.72241211 33.8346582 14.72241211 39.2746582 C17.46811523 39.23985352 17.46811523 39.23985352 20.26928711 39.2043457 C22.6703247 39.1855876 25.0713667 39.16738744 27.47241211 39.1496582 C28.67897461 39.13290039 29.88553711 39.11614258 31.12866211 39.09887695 C32.28881836 39.09243164 33.44897461 39.08598633 34.64428711 39.0793457 C35.71259766 39.06887207 36.7809082 39.05839844 37.8815918 39.04760742 C40.73602706 39.27574637 42.34501361 39.71684015 44.72241211 41.2746582 C47.51307902 45.73972526 47.29069058 51.18522305 46.72241211 56.2746582 C45.55809142 58.75516749 44.62815259 60.36891772 42.72241211 62.2746582 C40.64979134 62.36232933 38.57420917 62.38161693 36.49975586 62.37231445 C35.23969727 62.3690918 33.97963867 62.36586914 32.68139648 62.36254883 C31.34090102 62.35419224 30.00040623 62.34572728 28.65991211 62.3371582 C27.31551269 62.3321448 25.97111151 62.32758162 24.62670898 62.32348633 C21.32525778 62.31165317 18.02382951 62.29371706 14.72241211 62.2746582 C14.72241211 68.8746582 14.72241211 75.4746582 14.72241211 82.2746582 C17.14198242 82.22825195 19.56155273 82.1818457 22.05444336 82.1340332 C24.39760236 82.10283919 26.74073824 82.07855069 29.08398438 82.05493164 C30.7126704 82.03481439 32.34128419 82.00751683 33.96972656 81.97290039 C36.31064669 81.92438391 38.65061229 81.90169189 40.99194336 81.8840332 C42.08428032 81.85306549 42.08428032 81.85306549 43.19868469 81.82147217 C46.44906375 81.82002904 48.23601172 81.82614022 50.6784668 84.07836914 C52.22807423 87.33848806 52.15637932 90.18534703 52.15991211 93.7746582 C52.17924805 95.0843457 52.19858398 96.3940332 52.21850586 97.7434082 C51.63919588 101.86700047 50.93408995 102.75364345 47.72241211 105.2746582 C45.18702698 105.78259277 45.18702698 105.78259277 42.29882812 105.79223633 C41.21412735 105.80484497 40.12942657 105.81745361 39.01185608 105.83044434 C37.26176491 105.81829895 37.26176491 105.81829895 35.47631836 105.8059082 C34.27305405 105.80973511 33.06978973 105.81356201 31.83006287 105.81750488 C29.28562585 105.82022666 26.74116098 105.81284707 24.19677734 105.79614258 C20.30299385 105.77475751 16.41105962 105.79592793 12.51733398 105.8215332 C10.0453247 105.81888961 7.57331657 105.81376399 5.10131836 105.8059082 C3.93661514 105.81400513 2.77191193 105.82210205 1.57191467 105.83044434 C-6.47284665 105.73720239 -6.47284665 105.73720239 -10.48876953 103.42895508 C-13.95111505 99.25920799 -13.43180501 94.80883365 -13.4387207 89.65991211 C-13.44368561 88.77993057 -13.44865051 87.89994904 -13.45376587 86.99330139 C-13.46838305 84.07926657 -13.47518848 81.16528618 -13.48071289 78.2512207 C-13.48646436 76.22724404 -13.49222209 74.2032674 -13.49798584 72.17929077 C-13.50849432 67.9340591 -13.51433811 63.68884636 -13.51782227 59.44360352 C-13.52330907 54.00384571 -13.54734179 48.56433794 -13.57579422 43.12465858 C-13.59441656 38.9433621 -13.59962597 34.76212593 -13.60115814 30.58079147 C-13.60418571 28.57532762 -13.61221773 26.56986486 -13.62534332 24.56444168 C-13.64239652 21.75883184 -13.64052541 18.95383399 -13.6340332 16.14819336 C-13.64324799 15.31996567 -13.65246277 14.49173798 -13.66195679 13.63841248 C-13.62888471 9.07634924 -13.39184083 5.8763128 -10.27758789 2.2746582 C-6.83285534 0.38206291 -3.89130271 0.01990742 0 0 Z " fill="#0C132D" transform="translate(472.277587890625,577.725341796875)"/>
<path d="M0 0 C1.53707108 -0.02409439 1.53707108 -0.02409439 3.10519409 -0.04867554 C7.78138522 -0.09316042 12.45743594 -0.13417192 17.13378906 -0.15722656 C19.60133279 -0.17380471 22.06882815 -0.20111874 24.53613281 -0.23925781 C28.09351515 -0.2939575 31.64977359 -0.315889 35.20751953 -0.33056641 C36.30973846 -0.35323578 37.4119574 -0.37590515 38.5475769 -0.39926147 C46.17810161 -0.37816847 46.17810161 -0.37816847 50.16308594 2.51245117 C52.48027917 5.95873463 52.57125271 8.128878 52.46533203 12.25537109 C52.45501953 13.46322266 52.44470703 14.67107422 52.43408203 15.91552734 C51.91923898 19.51513831 51.60109959 20.73824463 48.96533203 23.19287109 C46.24902761 23.54919567 43.94390279 23.66029726 41.23486328 23.58349609 C40.4844426 23.5778363 39.73402191 23.57217651 38.96086121 23.56634521 C36.565867 23.54396777 34.17237335 23.4937728 31.77783203 23.44287109 C30.15350469 23.42280768 28.52915388 23.40455663 26.90478516 23.38818359 C22.92392546 23.34750031 18.94630638 23.26922436 14.96533203 23.19287109 C14.96533203 28.47287109 14.96533203 33.75287109 14.96533203 39.19287109 C16.78419922 39.15806641 18.60306641 39.12326172 20.47705078 39.08740234 C22.86896863 39.05926213 25.26089646 39.03196223 27.65283203 39.00537109 C28.85101562 38.98023438 30.04919922 38.95509766 31.28369141 38.92919922 C32.440625 38.91953125 33.59755859 38.90986328 34.78955078 38.89990234 C35.85262451 38.88419189 36.91569824 38.86848145 38.01098633 38.85229492 C41.41140557 39.24429433 43.26049043 40.11850183 45.96533203 42.19287109 C47.02918686 45.38443558 47.13211185 47.77784585 47.15283203 51.13037109 C47.16701172 52.17064453 47.18119141 53.21091797 47.19580078 54.28271484 C46.96699353 57.17189119 46.55143788 58.79423383 44.96533203 61.19287109 C42.14709011 62.60199205 39.79281921 62.30470662 36.64501953 62.29052734 C35.38818359 62.28730469 34.13134766 62.28408203 32.83642578 62.28076172 C31.51771484 62.27238281 30.19900391 62.26400391 28.84033203 62.25537109 C27.50048992 62.25035599 26.16064603 62.2457931 24.82080078 62.24169922 C21.53562547 62.22988204 18.25047322 62.21194611 14.96533203 62.19287109 C14.96533203 68.79287109 14.96533203 75.39287109 14.96533203 82.19287109 C18.5946875 82.14066406 18.5946875 82.14066406 22.29736328 82.08740234 C24.64053162 82.06400674 26.98368694 82.04579024 29.3269043 82.02807617 C30.95554426 82.01298866 32.58414359 81.99251603 34.21264648 81.96655273 C36.55348739 81.93016661 38.89379122 81.91314489 41.23486328 81.89990234 C41.96308792 81.88441849 42.69131256 81.86893463 43.44160461 81.85298157 C48.49142453 81.85130003 48.49142453 81.85130003 50.90625 83.59179688 C53.742364 87.87931085 53.32731051 93.24877483 52.96533203 98.19287109 C52.00638563 101.41219116 51.33404224 102.82416089 48.96533203 105.19287109 C46.67045593 105.4535675 46.67045593 105.4535675 43.76879883 105.4675293 C42.14152107 105.48182732 42.14152107 105.48182732 40.48136902 105.49641418 C39.304319 105.49550278 38.12726898 105.49459137 36.91455078 105.49365234 C35.10540947 105.50008003 35.10540947 105.50008003 33.25971985 105.50663757 C30.70334502 105.51239031 28.14695381 105.51287423 25.59057617 105.50854492 C21.67940233 105.50539251 17.76898997 105.5288074 13.85791016 105.55419922 C11.37679132 105.55647286 8.89567045 105.55717541 6.41455078 105.55615234 C5.24357346 105.56536209 4.07259613 105.57457184 2.86613464 105.58406067 C1.77182632 105.57783188 0.67751801 105.57160309 -0.44995117 105.56518555 C-1.4098848 105.56581497 -2.36981842 105.5664444 -3.35884094 105.5670929 C-6.5491976 105.1209127 -8.43899954 104.07118374 -11.03466797 102.19287109 C-12.71832649 98.82555405 -12.20028366 95.01315936 -12.21166992 91.30859375 C-12.21824112 90.38813766 -12.22481232 89.46768158 -12.23158264 88.51933289 C-12.25133703 85.46519902 -12.26298198 82.41111434 -12.27294922 79.35693359 C-12.27702475 78.31566692 -12.28110027 77.27440025 -12.2852993 76.20158005 C-12.30616751 70.69216865 -12.32046693 65.18278223 -12.32983398 59.67333984 C-12.34091008 53.97443688 -12.37532181 48.27592313 -12.41500568 42.57715797 C-12.44111041 38.20202899 -12.44952027 33.82699369 -12.45311546 29.45179367 C-12.45799602 27.35059348 -12.46965152 25.24939787 -12.48815346 23.14827347 C-12.51241789 20.21051123 -12.51160328 17.27376858 -12.50463867 14.3359375 C-12.51744873 13.46514053 -12.53025879 12.59434357 -12.54345703 11.69715881 C-12.49253916 5.81656881 -12.49253916 5.81656881 -10.1927948 2.68392944 C-6.79116228 0.3337281 -4.02537766 0.05739047 0 0 Z " fill="#0C132D" transform="translate(557.03466796875,577.80712890625)"/>
<path d="M0 0 C3.18498334 4.13539978 2.79401351 9.17289309 2.71484375 14.2265625 C1.79114897 20.15025728 1.79114897 20.15025728 -0.28515625 22.2265625 C-5.25974061 22.87542133 -8.1165926 21.97662851 -12.59765625 19.7265625 C-17.86524437 17.16179201 -22.46354997 16.19474795 -28.28515625 17.2265625 C-29.27515625 17.8865625 -30.26515625 18.5465625 -31.28515625 19.2265625 C-31.95237161 22.14096949 -31.95237161 22.14096949 -31.28515625 25.2265625 C-27.20548467 29.25737574 -22.26397799 31.15326032 -17.09765625 33.4140625 C-6.80118768 38.1132403 1.88871148 43.52513876 6.71484375 54.2265625 C9.36838246 62.60235816 8.41960541 72.35193923 4.71484375 80.2265625 C0.15955135 88.66228916 -7.28212431 94.22016404 -16.28515625 97.2265625 C-28.99049272 100.57717336 -43.63790724 98.83009768 -55.33984375 93.24609375 C-58.90478975 91.15659191 -60.06063179 89.06960132 -61.28515625 85.2265625 C-61.5859375 82.2890625 -61.5859375 82.2890625 -61.59765625 79.2265625 C-61.61441406 78.2159375 -61.63117188 77.2053125 -61.6484375 76.1640625 C-61.23060185 72.78543445 -60.35923062 70.91122886 -58.28515625 68.2265625 C-52.49335333 67.0445619 -48.47748603 69.33291692 -43.51953125 72.03515625 C-37.79232926 75.08899647 -31.61960564 74.93126999 -25.28515625 74.2265625 C-22.41966757 72.87776802 -21.92749376 72.06906972 -20.28515625 69.2265625 C-19.80153432 66.63756367 -19.80153432 66.63756367 -21.28515625 64.2265625 C-26.14290633 60.38136135 -30.99895337 57.85339084 -36.66015625 55.4140625 C-46.23077717 51.08574997 -53.76934036 46.01083026 -58.28515625 36.2265625 C-61.00881135 27.88654274 -60.42860919 17.48089976 -56.78515625 9.6015625 C-51.8091607 1.02145802 -44.58028969 -2.89957982 -35.28515625 -5.7734375 C-24.16719546 -8.14283898 -9.23772527 -7.16910645 0 0 Z " fill="#0C132D" transform="translate(439.28515625,584.7734375)"/>
<path d="M0 0 C0.68680847 -0.00394272 1.37361694 -0.00788544 2.08123779 -0.01194763 C4.3406381 -0.01863463 6.59799531 0.01044912 8.85717773 0.04077148 C10.4322826 0.04502423 12.00739374 0.04735045 13.58250427 0.0478363 C16.87869807 0.0539939 20.17421022 0.07665616 23.47021484 0.11230469 C27.69262686 0.15761391 31.91442272 0.17233312 36.1370554 0.1760416 C39.38760947 0.18047259 42.63803459 0.19578004 45.88853264 0.21491814 C47.44543334 0.22378886 49.00234773 0.23052443 50.55926704 0.23507881 C52.73505843 0.24413419 54.91029651 0.26653444 57.0859375 0.29296875 C58.3232814 0.30360855 59.56062531 0.31424835 60.83546448 0.32521057 C63.81677712 0.58527769 65.52610014 0.92805074 67.97827148 2.59936523 C70.80817768 8.99741402 70.22358715 16.11289777 67.97827148 22.59936523 C65.97827148 24.59936523 65.97827148 24.59936523 63.5480957 24.82641602 C62.55310059 24.81594238 61.55810547 24.80546875 60.53295898 24.79467773 C59.4565918 24.78823242 58.38022461 24.78178711 57.27124023 24.77514648 C56.14331055 24.75838867 55.01538086 24.74163086 53.85327148 24.72436523 C52.71760742 24.7153418 51.58194336 24.70631836 50.41186523 24.69702148 C47.6004585 24.67339622 44.7894685 24.64045536 41.97827148 24.59936523 C41.98715393 25.56989334 41.99603638 26.54042145 42.00518799 27.5403595 C42.08620708 36.67808479 42.14620465 45.8157374 42.18552017 54.95374012 C42.20641215 59.65192931 42.23475894 64.34982901 42.2800293 69.04785156 C42.32342997 73.58010905 42.34739646 78.11208775 42.35778046 82.64453697 C42.36518226 84.375367 42.37963606 86.10618145 42.40119171 87.83689308 C42.43014975 90.25781071 42.43423081 92.6775704 42.43237305 95.09863281 C42.4539447 96.17649048 42.4539447 96.17649048 42.47595215 97.27612305 C42.44881261 100.535776 42.40572881 102.16182578 40.07757568 104.54489136 C37.77863086 105.69964409 36.35008661 105.97342684 33.79077148 105.96264648 C33.00959961 105.96200195 32.22842773 105.96135742 31.42358398 105.96069336 C30.61663086 105.94458008 29.80967773 105.9284668 28.97827148 105.91186523 C28.17131836 105.91508789 27.36436523 105.91831055 26.53295898 105.92163086 C22.44493595 105.88452834 19.54580599 105.79086454 15.97827148 103.59936523 C14.48705371 100.61692968 14.84825676 97.57320771 14.86474609 94.30395508 C14.86460007 93.55263809 14.86445404 92.80132111 14.86430359 92.02723694 C14.86500152 89.53822973 14.87278835 87.04929691 14.88061523 84.56030273 C14.88247984 82.83680258 14.88390354 81.1133019 14.88490295 79.38980103 C14.8887248 74.84910626 14.89855226 70.30844338 14.90960693 65.76776123 C14.9198282 61.13611279 14.92440211 56.5044592 14.92944336 51.87280273 C14.94017481 42.78164288 14.95724726 33.6905067 14.97827148 24.59936523 C14.26695068 24.6203125 13.55562988 24.64125977 12.82275391 24.6628418 C9.6039032 24.74592248 6.38527782 24.79799989 3.16577148 24.84936523 C2.0462207 24.88288086 0.92666992 24.91639648 -0.22680664 24.95092773 C-1.29995117 24.96381836 -2.3730957 24.97670898 -3.47875977 24.98999023 C-4.96339722 25.02141113 -4.96339722 25.02141113 -6.47802734 25.0534668 C-9.02172852 24.59936523 -9.02172852 24.59936523 -10.83886719 22.79345703 C-12.57827152 19.56703253 -12.49286141 16.80272834 -12.52172852 13.16186523 C-12.55266602 11.8637793 -12.58360352 10.56569336 -12.61547852 9.22827148 C-11.41440849 1.88752114 -6.95234093 -0.02847246 0 0 Z " fill="#0C132D" transform="translate(628.021728515625,577.400634765625)"/>
<path d="M0 0 C1.01964844 -0.01417969 2.03929687 -0.02835938 3.08984375 -0.04296875 C6.19561288 0.19782018 8.30861813 0.74590271 11.0625 2.1875 C13.10082267 5.244984 13.31343846 5.84795346 13.32319641 9.28649902 C13.33028122 10.11928879 13.33736603 10.95207855 13.34466553 11.81010437 C13.34218811 12.72032852 13.33971069 13.63055267 13.3371582 14.56835938 C13.3448246 16.01019341 13.3448246 16.01019341 13.35264587 17.4811554 C13.36656801 20.66458325 13.36558329 23.84779529 13.36328125 27.03125 C13.36716639 29.23938071 13.37150068 31.44751067 13.37626648 33.65563965 C13.38373408 38.28591331 13.38343323 42.91611073 13.37817383 47.54638672 C13.3723748 53.48856238 13.38931822 59.43042679 13.4125185 65.37255096 C13.42722788 69.93294102 13.42813142 74.49325559 13.42500877 79.05366516 C13.42552327 81.24498614 13.43078497 83.4363112 13.44082069 85.62760925 C13.45311521 88.68749415 13.44643567 91.74676603 13.43481445 94.80664062 C13.44628006 96.17197685 13.44628006 96.17197685 13.45797729 97.56489563 C13.45096298 98.39768539 13.44394867 99.23047516 13.4367218 100.08850098 C13.43688954 100.81189919 13.43705729 101.53529739 13.43723011 102.28061676 C12.95201255 104.74973576 11.98724048 105.61763537 10.0625 107.1875 C6.80566597 108.81591701 3.26291665 108.45545577 -0.3125 108.5 C-1.46492187 108.54350586 -1.46492187 108.54350586 -2.640625 108.58789062 C-3.38570312 108.59626953 -4.13078125 108.60464844 -4.8984375 108.61328125 C-5.57696777 108.62786377 -6.25549805 108.64244629 -6.95458984 108.6574707 C-10.05446277 107.922768 -11.03244718 106.75406739 -12.9375 104.1875 C-13.54060629 100.99707694 -13.47339246 97.8399892 -13.43920898 94.60131836 C-13.44461197 93.63019608 -13.45001495 92.65907379 -13.45558167 91.65852356 C-13.46809143 88.44782051 -13.45156374 85.23801013 -13.43359375 82.02734375 C-13.43374867 79.79822238 -13.43523653 77.56910074 -13.43800354 75.33998108 C-13.4393885 70.66850883 -13.42681188 65.99734324 -13.40405273 61.32592773 C-13.37565164 55.33105749 -13.37840872 49.3366963 -13.39114285 43.34178829 C-13.39808937 38.73934055 -13.39032273 34.13701098 -13.37788582 29.53457832 C-13.3733625 27.32373062 -13.37304217 25.11287028 -13.37695122 22.90202141 C-13.37985375 19.81584422 -13.36340259 16.73037496 -13.34155273 13.64428711 C-13.34605438 12.72628326 -13.35055603 11.80827942 -13.35519409 10.86245728 C-13.34528946 10.02269852 -13.33538483 9.18293976 -13.32518005 8.31773376 C-13.32275016 7.58826003 -13.32032026 6.8587863 -13.31781673 6.1072073 C-12.82813444 3.63546047 -11.8722442 2.75070763 -9.9375 1.1875 C-6.68697698 -0.02183437 -3.44269295 0.02170677 0 0 Z " fill="#0C132D" transform="translate(869.9375,574.8125)"/>
</svg>
